<?xml version="1.0" encoding="utf-8"?>
<!-- Generator: Adobe Illustrator 16.0.0, SVG Export Plug-In . SVG Version: 6.00 Build 0)  -->
<!DOCTYPE svg PUBLIC "-//W3C//DTD SVG 1.0//EN" "http://www.w3.org/TR/2001/REC-SVG-20010904/DTD/svg10.dtd">
<svg version="1.0" id="Layer_1" xmlns="http://www.w3.org/2000/svg" xmlns:xlink="http://www.w3.org/1999/xlink" x="0px" y="0px"
	 width="100px" height="100px" viewBox="0 0 100 100" enable-background="new 0 0 100 100" xml:space="preserve">
<path fill="#7CB342" d="M46.667,70v6.667H30c-11.045,0-20-8.955-20-20c0-9.909,7.214-18.11,16.667-19.701v-3.633
	C26.667,20.448,37.116,10,50,10s23.333,10.448,23.333,23.333v3.638C82.786,38.56,90,46.763,90,56.67c0,11.045-8.958,20-20,20H53.333
	v-6.667H70c7.354,0,13.333-5.979,13.333-13.334c0-6.521-4.67-12.041-11.106-13.125l-5.56-0.935v-9.276
	c0-9.188-7.478-16.667-16.667-16.667s-16.667,7.479-16.667,16.667v9.271l-5.56,0.938c-6.436,1.081-11.106,6.603-11.106,13.125
	C16.667,64.021,22.648,70,30,70H46.667z"/>
<path fill="#9B8579" d="M53.333,70c0-3.682,2.985-6.667,6.667-6.667h13.333v-6.666H60c-2.441,0-4.697,0.703-6.667,1.849v-1.849
	c0-1.781,0.69-3.454,1.953-4.714l8.047-8.047l-4.713-4.713l-5.287,5.286V23.333h-6.666v21.146l-5.287-5.286l-4.713,4.713
	l8.047,8.047c1.263,1.26,1.953,2.933,1.953,4.714v1.849C44.7,57.37,42.441,56.667,40,56.667H26.667v6.666H40
	c3.681,0,6.667,2.985,6.667,6.667v20h6.666V70z"/>
<path fill="#DCEDC8" d="M72.227,43.544l-5.56-0.935v-9.276c0-9.188-7.478-16.667-16.667-16.667s-16.667,7.479-16.667,16.667v9.271
	l-5.56,0.938c-6.436,1.081-11.106,6.603-11.106,13.125C16.667,64.021,22.648,70,30,70h16.667c0-3.682-2.986-6.667-6.667-6.667
	H26.667v-6.666H40c2.441,0,4.7,0.703,6.667,1.849v-1.849c0-1.781-0.69-3.454-1.953-4.714l-8.047-8.047l4.713-4.713l5.287,5.286
	V23.333h6.666v21.146l5.287-5.286l4.713,4.713l-8.047,8.047c-1.263,1.26-1.953,2.933-1.953,4.714v1.849
	c1.97-1.146,4.226-1.849,6.667-1.849h13.333v6.666H60c-3.682,0-6.667,2.985-6.667,6.667v0.003H70
	c7.354,0,13.333-5.979,13.333-13.334C83.333,50.148,78.663,44.628,72.227,43.544z"/>
</svg>
